<mxfile host="app.diagrams.net" modified="2023-03-13T23:24:35.847Z" agent="5.0 (X11; Ubuntu)" etag="THvIM4JsjXOYMhb_4biZ" version="21.0.6" type="github">
  <diagram id="C5RBs43oDa-KdzZeNtuy" name="Page-1">
    <mxGraphModel dx="2261" dy="1846" grid="1" gridSize="10" guides="1" tooltips="1" connect="1" arrows="1" fold="1" page="1" pageScale="1" pageWidth="827" pageHeight="1169" math="0" shadow="0">
      <root>
        <mxCell id="WIyWlLk6GJQsqaUBKTNV-0" />
        <mxCell id="WIyWlLk6GJQsqaUBKTNV-1" parent="WIyWlLk6GJQsqaUBKTNV-0" />
        <mxCell id="CyxNVvdQWvEYHXwhOmgi-312" value="" style="rounded=1;whiteSpace=wrap;html=1;strokeWidth=2;fillWeight=4;hachureGap=8;hachureAngle=45;fillColor=#dae8fc;sketch=1;fillStyle=hatch;strokeColor=#6c8ebf;fontSize=12;" parent="WIyWlLk6GJQsqaUBKTNV-1" vertex="1">
          <mxGeometry x="1770" y="415" width="120" height="60" as="geometry" />
        </mxCell>
        <mxCell id="CyxNVvdQWvEYHXwhOmgi-85" value="" style="edgeStyle=orthogonalEdgeStyle;rounded=0;orthogonalLoop=1;jettySize=auto;html=1;" parent="WIyWlLk6GJQsqaUBKTNV-1" source="CyxNVvdQWvEYHXwhOmgi-82" edge="1">
          <mxGeometry relative="1" as="geometry">
            <mxPoint x="414" y="870" as="targetPoint" />
          </mxGeometry>
        </mxCell>
        <mxCell id="CyxNVvdQWvEYHXwhOmgi-82" value="" style="rounded=1;whiteSpace=wrap;html=1;strokeWidth=2;fillWeight=4;hachureGap=8;hachureAngle=45;fillColor=#fff2cc;sketch=1;strokeColor=#d6b656;" parent="WIyWlLk6GJQsqaUBKTNV-1" vertex="1">
          <mxGeometry x="354" y="730" width="120" height="60" as="geometry" />
        </mxCell>
        <mxCell id="CyxNVvdQWvEYHXwhOmgi-78" value="" style="rounded=1;whiteSpace=wrap;html=1;strokeWidth=2;fillWeight=4;hachureGap=8;hachureAngle=45;fillColor=#f5f5f5;sketch=1;fontColor=#333333;strokeColor=#666666;" parent="WIyWlLk6GJQsqaUBKTNV-1" vertex="1">
          <mxGeometry x="510" y="140" width="430" height="240" as="geometry" />
        </mxCell>
        <mxCell id="CyxNVvdQWvEYHXwhOmgi-0" value="" style="rounded=1;whiteSpace=wrap;html=1;strokeWidth=2;fillWeight=4;hachureGap=8;hachureAngle=45;fillColor=#dae8fc;sketch=1;strokeColor=#6c8ebf;" parent="WIyWlLk6GJQsqaUBKTNV-1" vertex="1">
          <mxGeometry x="-110" y="120" width="120" height="60" as="geometry" />
        </mxCell>
        <mxCell id="CyxNVvdQWvEYHXwhOmgi-3" value="" style="group" parent="WIyWlLk6GJQsqaUBKTNV-1" vertex="1" connectable="0">
          <mxGeometry x="-110" y="20" width="210" height="80" as="geometry" />
        </mxCell>
        <mxCell id="CyxNVvdQWvEYHXwhOmgi-1" value="&lt;ul&gt;&lt;li&gt;create loop for a 9 x 9 board&lt;br&gt;&lt;/li&gt;&lt;/ul&gt;" style="text;strokeColor=none;fillColor=none;html=1;whiteSpace=wrap;verticalAlign=top;overflow=hidden;align=left;" parent="CyxNVvdQWvEYHXwhOmgi-3" vertex="1">
          <mxGeometry y="30" width="209.99999999999997" height="50" as="geometry" />
        </mxCell>
        <mxCell id="CyxNVvdQWvEYHXwhOmgi-2" value="&lt;div&gt;Create board&lt;br&gt;&lt;/div&gt;" style="text;strokeColor=none;fillColor=none;html=1;fontSize=24;fontStyle=1;verticalAlign=middle;align=left;" parent="CyxNVvdQWvEYHXwhOmgi-3" vertex="1">
          <mxGeometry width="160" height="40" as="geometry" />
        </mxCell>
        <mxCell id="CyxNVvdQWvEYHXwhOmgi-4" value="create board" style="text;html=1;strokeColor=none;fillColor=none;align=center;verticalAlign=middle;whiteSpace=wrap;rounded=0;" parent="WIyWlLk6GJQsqaUBKTNV-1" vertex="1">
          <mxGeometry x="-80" y="135" width="60" height="30" as="geometry" />
        </mxCell>
        <mxCell id="CyxNVvdQWvEYHXwhOmgi-14" value="" style="edgeStyle=orthogonalEdgeStyle;rounded=0;orthogonalLoop=1;jettySize=auto;html=1;" parent="WIyWlLk6GJQsqaUBKTNV-1" source="CyxNVvdQWvEYHXwhOmgi-10" target="CyxNVvdQWvEYHXwhOmgi-13" edge="1">
          <mxGeometry relative="1" as="geometry" />
        </mxCell>
        <mxCell id="CyxNVvdQWvEYHXwhOmgi-10" value="" style="rounded=1;whiteSpace=wrap;html=1;strokeWidth=2;fillWeight=4;hachureGap=8;hachureAngle=45;fillColor=#fff2cc;sketch=1;strokeColor=#d6b656;" parent="WIyWlLk6GJQsqaUBKTNV-1" vertex="1">
          <mxGeometry x="-110" y="260" width="120" height="60" as="geometry" />
        </mxCell>
        <mxCell id="CyxNVvdQWvEYHXwhOmgi-12" value="Loop 9 rows" style="text;html=1;strokeColor=none;fillColor=none;align=center;verticalAlign=middle;whiteSpace=wrap;rounded=0;" parent="WIyWlLk6GJQsqaUBKTNV-1" vertex="1">
          <mxGeometry x="-80" y="275" width="60" height="30" as="geometry" />
        </mxCell>
        <mxCell id="CyxNVvdQWvEYHXwhOmgi-17" value="" style="edgeStyle=orthogonalEdgeStyle;rounded=0;orthogonalLoop=1;jettySize=auto;html=1;" parent="WIyWlLk6GJQsqaUBKTNV-1" source="CyxNVvdQWvEYHXwhOmgi-13" target="CyxNVvdQWvEYHXwhOmgi-16" edge="1">
          <mxGeometry relative="1" as="geometry" />
        </mxCell>
        <mxCell id="Ldfcd5cPlL7T_rlJQnoQ-0" style="edgeStyle=orthogonalEdgeStyle;rounded=0;orthogonalLoop=1;jettySize=auto;html=1;exitX=1;exitY=0.5;exitDx=0;exitDy=0;entryX=1;entryY=0.5;entryDx=0;entryDy=0;" edge="1" parent="WIyWlLk6GJQsqaUBKTNV-1" source="CyxNVvdQWvEYHXwhOmgi-13" target="CyxNVvdQWvEYHXwhOmgi-10">
          <mxGeometry relative="1" as="geometry">
            <Array as="points">
              <mxPoint x="70" y="430" />
              <mxPoint x="70" y="290" />
            </Array>
          </mxGeometry>
        </mxCell>
        <mxCell id="CyxNVvdQWvEYHXwhOmgi-13" value="" style="rounded=1;whiteSpace=wrap;html=1;strokeWidth=2;fillWeight=4;hachureGap=8;hachureAngle=45;fillColor=#fff2cc;sketch=1;strokeColor=#d6b656;" parent="WIyWlLk6GJQsqaUBKTNV-1" vertex="1">
          <mxGeometry x="-110" y="400" width="120" height="60" as="geometry" />
        </mxCell>
        <mxCell id="CyxNVvdQWvEYHXwhOmgi-15" value="Loop 9 columns" style="text;html=1;strokeColor=none;fillColor=none;align=center;verticalAlign=middle;whiteSpace=wrap;rounded=0;" parent="WIyWlLk6GJQsqaUBKTNV-1" vertex="1">
          <mxGeometry x="-80" y="415" width="60" height="30" as="geometry" />
        </mxCell>
        <mxCell id="CyxNVvdQWvEYHXwhOmgi-21" value="" style="edgeStyle=orthogonalEdgeStyle;rounded=0;orthogonalLoop=1;jettySize=auto;html=1;" parent="WIyWlLk6GJQsqaUBKTNV-1" source="CyxNVvdQWvEYHXwhOmgi-16" target="CyxNVvdQWvEYHXwhOmgi-20" edge="1">
          <mxGeometry relative="1" as="geometry" />
        </mxCell>
        <mxCell id="CyxNVvdQWvEYHXwhOmgi-16" value="" style="rounded=1;whiteSpace=wrap;html=1;strokeWidth=2;fillWeight=4;hachureGap=8;hachureAngle=45;fillColor=#fff2cc;sketch=1;strokeColor=#d6b656;" parent="WIyWlLk6GJQsqaUBKTNV-1" vertex="1">
          <mxGeometry x="-110" y="540" width="120" height="60" as="geometry" />
        </mxCell>
        <mxCell id="CyxNVvdQWvEYHXwhOmgi-18" value="Set each value to 0" style="text;html=1;strokeColor=none;fillColor=none;align=center;verticalAlign=middle;whiteSpace=wrap;rounded=0;" parent="WIyWlLk6GJQsqaUBKTNV-1" vertex="1">
          <mxGeometry x="-80" y="555" width="60" height="30" as="geometry" />
        </mxCell>
        <mxCell id="CyxNVvdQWvEYHXwhOmgi-19" value="" style="edgeStyle=orthogonalEdgeStyle;rounded=0;orthogonalLoop=1;jettySize=auto;html=1;" parent="WIyWlLk6GJQsqaUBKTNV-1" edge="1">
          <mxGeometry relative="1" as="geometry">
            <mxPoint x="-50.5" y="180" as="sourcePoint" />
            <mxPoint x="-50.5" y="260" as="targetPoint" />
            <Array as="points">
              <mxPoint x="-50.5" y="200" />
              <mxPoint x="-50.5" y="200" />
            </Array>
          </mxGeometry>
        </mxCell>
        <mxCell id="CyxNVvdQWvEYHXwhOmgi-20" value="" style="rounded=1;whiteSpace=wrap;html=1;strokeWidth=2;fillWeight=4;hachureGap=8;hachureAngle=45;fillColor=#d5e8d4;sketch=1;strokeColor=#82b366;" parent="WIyWlLk6GJQsqaUBKTNV-1" vertex="1">
          <mxGeometry x="-110" y="680" width="120" height="60" as="geometry" />
        </mxCell>
        <mxCell id="CyxNVvdQWvEYHXwhOmgi-22" value="return board" style="text;html=1;strokeColor=none;fillColor=none;align=center;verticalAlign=middle;whiteSpace=wrap;rounded=0;" parent="WIyWlLk6GJQsqaUBKTNV-1" vertex="1">
          <mxGeometry x="-80" y="695" width="60" height="30" as="geometry" />
        </mxCell>
        <mxCell id="CyxNVvdQWvEYHXwhOmgi-24" value="&lt;div&gt;Fill board&lt;br&gt;&lt;/div&gt;" style="text;strokeColor=none;fillColor=none;html=1;fontSize=24;fontStyle=1;verticalAlign=middle;align=left;" parent="WIyWlLk6GJQsqaUBKTNV-1" vertex="1">
          <mxGeometry x="354" y="20" width="146" height="40" as="geometry" />
        </mxCell>
        <mxCell id="CyxNVvdQWvEYHXwhOmgi-38" value="&lt;span style=&quot;white-space: pre;&quot;&gt; &lt;/span&gt;&lt;ul&gt;&lt;li&gt;Check if the row and col has a value of 0&lt;/li&gt;&lt;li&gt;if the value is 0 then assign a value between 1 - 9&lt;br&gt;&lt;/li&gt;&lt;li&gt;Before assigning the number&lt;/li&gt;&lt;ul&gt;&lt;li&gt;Check the number does not exist in the row&lt;/li&gt;&lt;li&gt;Check the number does not exist in the column&lt;br&gt;&lt;/li&gt;&lt;/ul&gt;&lt;/ul&gt;" style="text;strokeColor=none;fillColor=none;html=1;whiteSpace=wrap;verticalAlign=middle;overflow=hidden;" parent="WIyWlLk6GJQsqaUBKTNV-1" vertex="1">
          <mxGeometry x="354" y="40" width="376" height="80" as="geometry" />
        </mxCell>
        <mxCell id="CyxNVvdQWvEYHXwhOmgi-42" value="" style="edgeStyle=orthogonalEdgeStyle;rounded=0;orthogonalLoop=1;jettySize=auto;html=1;" parent="WIyWlLk6GJQsqaUBKTNV-1" source="CyxNVvdQWvEYHXwhOmgi-39" target="CyxNVvdQWvEYHXwhOmgi-41" edge="1">
          <mxGeometry relative="1" as="geometry" />
        </mxCell>
        <mxCell id="CyxNVvdQWvEYHXwhOmgi-48" value="" style="edgeStyle=orthogonalEdgeStyle;rounded=0;orthogonalLoop=1;jettySize=auto;html=1;" parent="WIyWlLk6GJQsqaUBKTNV-1" source="CyxNVvdQWvEYHXwhOmgi-39" target="CyxNVvdQWvEYHXwhOmgi-47" edge="1">
          <mxGeometry relative="1" as="geometry" />
        </mxCell>
        <mxCell id="CyxNVvdQWvEYHXwhOmgi-39" value="" style="rounded=1;whiteSpace=wrap;html=1;strokeWidth=2;fillWeight=4;hachureGap=8;hachureAngle=45;fillColor=#dae8fc;sketch=1;strokeColor=#6c8ebf;" parent="WIyWlLk6GJQsqaUBKTNV-1" vertex="1">
          <mxGeometry x="354" y="160" width="120" height="60" as="geometry" />
        </mxCell>
        <mxCell id="CyxNVvdQWvEYHXwhOmgi-40" value="Fill boad" style="text;html=1;strokeColor=none;fillColor=none;align=center;verticalAlign=middle;whiteSpace=wrap;rounded=0;" parent="WIyWlLk6GJQsqaUBKTNV-1" vertex="1">
          <mxGeometry x="384" y="175" width="60" height="30" as="geometry" />
        </mxCell>
        <mxCell id="CyxNVvdQWvEYHXwhOmgi-45" value="" style="edgeStyle=orthogonalEdgeStyle;rounded=0;orthogonalLoop=1;jettySize=auto;html=1;" parent="WIyWlLk6GJQsqaUBKTNV-1" source="CyxNVvdQWvEYHXwhOmgi-41" target="CyxNVvdQWvEYHXwhOmgi-44" edge="1">
          <mxGeometry relative="1" as="geometry" />
        </mxCell>
        <mxCell id="CyxNVvdQWvEYHXwhOmgi-41" value="" style="rounded=1;whiteSpace=wrap;html=1;strokeWidth=2;fillWeight=4;hachureGap=8;hachureAngle=45;fillColor=#fff2cc;sketch=1;strokeColor=#d6b656;" parent="WIyWlLk6GJQsqaUBKTNV-1" vertex="1">
          <mxGeometry x="354" y="300" width="120" height="60" as="geometry" />
        </mxCell>
        <mxCell id="CyxNVvdQWvEYHXwhOmgi-43" value="Loop through board rows" style="text;html=1;strokeColor=none;fillColor=none;align=center;verticalAlign=middle;whiteSpace=wrap;rounded=0;" parent="WIyWlLk6GJQsqaUBKTNV-1" vertex="1">
          <mxGeometry x="371" y="315" width="86" height="30" as="geometry" />
        </mxCell>
        <mxCell id="CyxNVvdQWvEYHXwhOmgi-72" value="" style="edgeStyle=orthogonalEdgeStyle;rounded=0;orthogonalLoop=1;jettySize=auto;html=1;" parent="WIyWlLk6GJQsqaUBKTNV-1" source="CyxNVvdQWvEYHXwhOmgi-44" edge="1">
          <mxGeometry relative="1" as="geometry">
            <mxPoint x="414" y="570" as="targetPoint" />
          </mxGeometry>
        </mxCell>
        <mxCell id="CyxNVvdQWvEYHXwhOmgi-44" value="" style="rounded=1;whiteSpace=wrap;html=1;strokeWidth=2;fillWeight=4;hachureGap=8;hachureAngle=45;fillColor=#fff2cc;sketch=1;strokeColor=#d6b656;" parent="WIyWlLk6GJQsqaUBKTNV-1" vertex="1">
          <mxGeometry x="354" y="440" width="120" height="60" as="geometry" />
        </mxCell>
        <mxCell id="CyxNVvdQWvEYHXwhOmgi-46" value="Loop through board columns" style="text;html=1;strokeColor=none;fillColor=none;align=center;verticalAlign=middle;whiteSpace=wrap;rounded=0;" parent="WIyWlLk6GJQsqaUBKTNV-1" vertex="1">
          <mxGeometry x="371" y="455" width="86" height="30" as="geometry" />
        </mxCell>
        <mxCell id="CyxNVvdQWvEYHXwhOmgi-47" value="" style="rounded=1;whiteSpace=wrap;html=1;strokeWidth=2;fillWeight=4;hachureGap=8;hachureAngle=45;fillColor=#fff2cc;sketch=1;strokeColor=#d6b656;" parent="WIyWlLk6GJQsqaUBKTNV-1" vertex="1">
          <mxGeometry x="554" y="160" width="120" height="60" as="geometry" />
        </mxCell>
        <mxCell id="CyxNVvdQWvEYHXwhOmgi-49" value="Choose random square" style="text;html=1;strokeColor=none;fillColor=none;align=center;verticalAlign=middle;whiteSpace=wrap;rounded=0;" parent="WIyWlLk6GJQsqaUBKTNV-1" vertex="1">
          <mxGeometry x="584" y="175" width="60" height="30" as="geometry" />
        </mxCell>
        <mxCell id="CyxNVvdQWvEYHXwhOmgi-50" value="" style="rounded=1;whiteSpace=wrap;html=1;strokeWidth=2;fillWeight=4;hachureGap=8;hachureAngle=45;fillColor=#fff2cc;sketch=1;strokeColor=#d6b656;" parent="WIyWlLk6GJQsqaUBKTNV-1" vertex="1">
          <mxGeometry x="554" y="300" width="120" height="60" as="geometry" />
        </mxCell>
        <mxCell id="CyxNVvdQWvEYHXwhOmgi-63" style="edgeStyle=orthogonalEdgeStyle;rounded=0;orthogonalLoop=1;jettySize=auto;html=1;entryX=1;entryY=0.5;entryDx=0;entryDy=0;" parent="WIyWlLk6GJQsqaUBKTNV-1" source="CyxNVvdQWvEYHXwhOmgi-52" target="CyxNVvdQWvEYHXwhOmgi-41" edge="1">
          <mxGeometry relative="1" as="geometry" />
        </mxCell>
        <mxCell id="CyxNVvdQWvEYHXwhOmgi-52" value="Set value between 1-9 to this square" style="text;html=1;strokeColor=none;fillColor=none;align=center;verticalAlign=middle;whiteSpace=wrap;rounded=0;" parent="WIyWlLk6GJQsqaUBKTNV-1" vertex="1">
          <mxGeometry x="554" y="315" width="120" height="30" as="geometry" />
        </mxCell>
        <mxCell id="CyxNVvdQWvEYHXwhOmgi-62" value="" style="endArrow=classic;html=1;rounded=0;entryX=0;entryY=0;entryDx=0;entryDy=0;" parent="WIyWlLk6GJQsqaUBKTNV-1" target="CyxNVvdQWvEYHXwhOmgi-74" edge="1">
          <mxGeometry width="50" height="50" relative="1" as="geometry">
            <mxPoint x="674" y="215" as="sourcePoint" />
            <mxPoint x="690" y="260" as="targetPoint" />
          </mxGeometry>
        </mxCell>
        <mxCell id="CyxNVvdQWvEYHXwhOmgi-64" value="NO" style="text;html=1;strokeColor=none;fillColor=none;align=center;verticalAlign=middle;whiteSpace=wrap;rounded=0;" parent="WIyWlLk6GJQsqaUBKTNV-1" vertex="1">
          <mxGeometry x="827" y="260" width="60" height="30" as="geometry" />
        </mxCell>
        <mxCell id="CyxNVvdQWvEYHXwhOmgi-65" value="&lt;div&gt;YES&lt;/div&gt;" style="text;html=1;strokeColor=none;fillColor=none;align=center;verticalAlign=middle;whiteSpace=wrap;rounded=0;" parent="WIyWlLk6GJQsqaUBKTNV-1" vertex="1">
          <mxGeometry x="700" y="330" width="60" height="30" as="geometry" />
        </mxCell>
        <mxCell id="CyxNVvdQWvEYHXwhOmgi-80" value="" style="edgeStyle=orthogonalEdgeStyle;rounded=0;orthogonalLoop=1;jettySize=auto;html=1;" parent="WIyWlLk6GJQsqaUBKTNV-1" source="CyxNVvdQWvEYHXwhOmgi-73" edge="1">
          <mxGeometry relative="1" as="geometry">
            <mxPoint x="414" y="730" as="targetPoint" />
          </mxGeometry>
        </mxCell>
        <mxCell id="CyxNVvdQWvEYHXwhOmgi-73" value="" style="rhombus;whiteSpace=wrap;html=1;strokeWidth=2;fillWeight=-1;hachureGap=8;fillStyle=cross-hatch;fillColor=#ffe6cc;sketch=1;strokeColor=#d79b00;" parent="WIyWlLk6GJQsqaUBKTNV-1" vertex="1">
          <mxGeometry x="334" y="570" width="160" height="80" as="geometry" />
        </mxCell>
        <mxCell id="CyxNVvdQWvEYHXwhOmgi-70" value="Check square DOES NOT have a value of 0" style="text;html=1;strokeColor=none;fillColor=none;align=center;verticalAlign=middle;whiteSpace=wrap;rounded=0;" parent="WIyWlLk6GJQsqaUBKTNV-1" vertex="1">
          <mxGeometry x="371" y="602" width="90" height="30" as="geometry" />
        </mxCell>
        <mxCell id="CyxNVvdQWvEYHXwhOmgi-76" value="" style="edgeStyle=orthogonalEdgeStyle;rounded=0;orthogonalLoop=1;jettySize=auto;html=1;" parent="WIyWlLk6GJQsqaUBKTNV-1" source="CyxNVvdQWvEYHXwhOmgi-74" target="CyxNVvdQWvEYHXwhOmgi-52" edge="1">
          <mxGeometry relative="1" as="geometry" />
        </mxCell>
        <mxCell id="CyxNVvdQWvEYHXwhOmgi-77" style="edgeStyle=orthogonalEdgeStyle;rounded=0;orthogonalLoop=1;jettySize=auto;html=1;exitX=0.5;exitY=0;exitDx=0;exitDy=0;entryX=1;entryY=0.5;entryDx=0;entryDy=0;" parent="WIyWlLk6GJQsqaUBKTNV-1" source="CyxNVvdQWvEYHXwhOmgi-74" target="CyxNVvdQWvEYHXwhOmgi-47" edge="1">
          <mxGeometry relative="1" as="geometry" />
        </mxCell>
        <mxCell id="CyxNVvdQWvEYHXwhOmgi-74" value="" style="rhombus;whiteSpace=wrap;html=1;strokeWidth=2;fillWeight=-1;hachureGap=8;fillStyle=cross-hatch;fillColor=#ffe6cc;sketch=1;strokeColor=#d79b00;" parent="WIyWlLk6GJQsqaUBKTNV-1" vertex="1">
          <mxGeometry x="750" y="290" width="160" height="80" as="geometry" />
        </mxCell>
        <mxCell id="CyxNVvdQWvEYHXwhOmgi-75" value="Check square has a value of 0" style="text;html=1;strokeColor=none;fillColor=none;align=center;verticalAlign=middle;whiteSpace=wrap;rounded=0;" parent="WIyWlLk6GJQsqaUBKTNV-1" vertex="1">
          <mxGeometry x="787" y="315" width="90" height="30" as="geometry" />
        </mxCell>
        <mxCell id="CyxNVvdQWvEYHXwhOmgi-81" value="Create random num" style="text;html=1;strokeColor=none;fillColor=none;align=center;verticalAlign=middle;whiteSpace=wrap;rounded=0;" parent="WIyWlLk6GJQsqaUBKTNV-1" vertex="1">
          <mxGeometry x="359" y="745" width="110" height="30" as="geometry" />
        </mxCell>
        <mxCell id="CyxNVvdQWvEYHXwhOmgi-90" value="" style="edgeStyle=orthogonalEdgeStyle;rounded=0;orthogonalLoop=1;jettySize=auto;html=1;" parent="WIyWlLk6GJQsqaUBKTNV-1" source="CyxNVvdQWvEYHXwhOmgi-87" target="CyxNVvdQWvEYHXwhOmgi-89" edge="1">
          <mxGeometry relative="1" as="geometry" />
        </mxCell>
        <mxCell id="CyxNVvdQWvEYHXwhOmgi-87" value="" style="rhombus;whiteSpace=wrap;html=1;strokeWidth=2;fillWeight=-1;hachureGap=8;fillStyle=cross-hatch;fillColor=#ffe6cc;sketch=1;strokeColor=#d79b00;" parent="WIyWlLk6GJQsqaUBKTNV-1" vertex="1">
          <mxGeometry x="334" y="870" width="160" height="80" as="geometry" />
        </mxCell>
        <mxCell id="CyxNVvdQWvEYHXwhOmgi-88" value="Check num is NOT in row" style="text;html=1;strokeColor=none;fillColor=none;align=center;verticalAlign=middle;whiteSpace=wrap;rounded=0;" parent="WIyWlLk6GJQsqaUBKTNV-1" vertex="1">
          <mxGeometry x="374" y="895" width="80" height="30" as="geometry" />
        </mxCell>
        <mxCell id="CyxNVvdQWvEYHXwhOmgi-100" value="" style="edgeStyle=orthogonalEdgeStyle;rounded=0;orthogonalLoop=1;jettySize=auto;html=1;" parent="WIyWlLk6GJQsqaUBKTNV-1" source="CyxNVvdQWvEYHXwhOmgi-89" edge="1">
          <mxGeometry relative="1" as="geometry">
            <mxPoint x="414" y="1200" as="targetPoint" />
          </mxGeometry>
        </mxCell>
        <mxCell id="CyxNVvdQWvEYHXwhOmgi-89" value="" style="rhombus;whiteSpace=wrap;html=1;strokeWidth=2;fillWeight=-1;hachureGap=8;fillStyle=cross-hatch;fillColor=#ffe6cc;sketch=1;strokeColor=#d79b00;" parent="WIyWlLk6GJQsqaUBKTNV-1" vertex="1">
          <mxGeometry x="334" y="1030" width="160" height="80" as="geometry" />
        </mxCell>
        <mxCell id="CyxNVvdQWvEYHXwhOmgi-91" value="Check num is NOT in column" style="text;html=1;strokeColor=none;fillColor=none;align=center;verticalAlign=middle;whiteSpace=wrap;rounded=0;" parent="WIyWlLk6GJQsqaUBKTNV-1" vertex="1">
          <mxGeometry x="375" y="1057" width="80" height="30" as="geometry" />
        </mxCell>
        <mxCell id="CyxNVvdQWvEYHXwhOmgi-95" value="TRUE" style="text;html=1;strokeColor=none;fillColor=#00CC00;align=center;verticalAlign=middle;whiteSpace=wrap;rounded=0;rotation=0;" parent="WIyWlLk6GJQsqaUBKTNV-1" vertex="1">
          <mxGeometry x="384" y="980" width="60" height="30" as="geometry" />
        </mxCell>
        <mxCell id="CyxNVvdQWvEYHXwhOmgi-96" value="TRUE" style="text;html=1;strokeColor=none;fillColor=#00CC00;align=center;verticalAlign=middle;whiteSpace=wrap;rounded=0;rotation=0;" parent="WIyWlLk6GJQsqaUBKTNV-1" vertex="1">
          <mxGeometry x="384" y="670" width="60" height="30" as="geometry" />
        </mxCell>
        <mxCell id="CyxNVvdQWvEYHXwhOmgi-268" value="" style="edgeStyle=orthogonalEdgeStyle;rounded=0;orthogonalLoop=1;jettySize=auto;html=1;fontSize=12;" parent="WIyWlLk6GJQsqaUBKTNV-1" source="CyxNVvdQWvEYHXwhOmgi-101" edge="1">
          <mxGeometry relative="1" as="geometry">
            <mxPoint x="414" y="1510" as="targetPoint" />
          </mxGeometry>
        </mxCell>
        <mxCell id="CyxNVvdQWvEYHXwhOmgi-101" value="" style="rounded=1;whiteSpace=wrap;html=1;strokeWidth=2;fillWeight=4;hachureGap=8;hachureAngle=45;fillColor=#fff2cc;sketch=1;strokeColor=#d6b656;arcSize=0;" parent="WIyWlLk6GJQsqaUBKTNV-1" vertex="1">
          <mxGeometry x="354" y="1370" width="120" height="60" as="geometry" />
        </mxCell>
        <mxCell id="CyxNVvdQWvEYHXwhOmgi-102" value="TRUE" style="text;html=1;strokeColor=none;fillColor=#00CC00;align=center;verticalAlign=middle;whiteSpace=wrap;rounded=0;rotation=0;" parent="WIyWlLk6GJQsqaUBKTNV-1" vertex="1">
          <mxGeometry x="384" y="1139" width="60" height="30" as="geometry" />
        </mxCell>
        <mxCell id="CyxNVvdQWvEYHXwhOmgi-103" value="Assign num to board cell" style="text;html=1;strokeColor=none;fillColor=none;align=center;verticalAlign=middle;whiteSpace=wrap;rounded=0;" parent="WIyWlLk6GJQsqaUBKTNV-1" vertex="1">
          <mxGeometry x="384" y="1385" width="60" height="30" as="geometry" />
        </mxCell>
        <mxCell id="CyxNVvdQWvEYHXwhOmgi-104" value="" style="rounded=1;whiteSpace=wrap;html=1;strokeWidth=2;fillWeight=4;hachureGap=8;hachureAngle=45;fillColor=#fff2cc;sketch=1;strokeColor=#d6b656;" parent="WIyWlLk6GJQsqaUBKTNV-1" vertex="1">
          <mxGeometry x="354" y="1510" width="120" height="60" as="geometry" />
        </mxCell>
        <mxCell id="CyxNVvdQWvEYHXwhOmgi-106" value="Complete column cells" style="text;html=1;strokeColor=none;fillColor=none;align=center;verticalAlign=middle;whiteSpace=wrap;rounded=0;" parent="WIyWlLk6GJQsqaUBKTNV-1" vertex="1">
          <mxGeometry x="376" y="1525" width="80" height="30" as="geometry" />
        </mxCell>
        <mxCell id="CyxNVvdQWvEYHXwhOmgi-110" value="" style="curved=1;endArrow=classic;html=1;rounded=0;entryX=0;entryY=0.5;entryDx=0;entryDy=0;exitX=0;exitY=0.5;exitDx=0;exitDy=0;" parent="WIyWlLk6GJQsqaUBKTNV-1" source="CyxNVvdQWvEYHXwhOmgi-104" target="CyxNVvdQWvEYHXwhOmgi-41" edge="1">
          <mxGeometry width="50" height="50" relative="1" as="geometry">
            <mxPoint x="330" y="1380" as="sourcePoint" />
            <mxPoint x="190" y="895" as="targetPoint" />
            <Array as="points">
              <mxPoint x="250" y="1200" />
              <mxPoint x="200" y="830" />
              <mxPoint x="270" y="430" />
            </Array>
          </mxGeometry>
        </mxCell>
        <mxCell id="CyxNVvdQWvEYHXwhOmgi-111" value="" style="curved=1;endArrow=classic;html=1;rounded=0;entryX=0;entryY=0.5;entryDx=0;entryDy=0;exitX=0;exitY=0.5;exitDx=0;exitDy=0;" parent="WIyWlLk6GJQsqaUBKTNV-1" source="CyxNVvdQWvEYHXwhOmgi-101" target="CyxNVvdQWvEYHXwhOmgi-44" edge="1">
          <mxGeometry width="50" height="50" relative="1" as="geometry">
            <mxPoint x="330" y="1230" as="sourcePoint" />
            <mxPoint x="364" y="340" as="targetPoint" />
            <Array as="points">
              <mxPoint x="270" y="1160" />
              <mxPoint x="210" y="840" />
              <mxPoint x="310" y="500" />
            </Array>
          </mxGeometry>
        </mxCell>
        <mxCell id="CyxNVvdQWvEYHXwhOmgi-239" value="" style="group" parent="WIyWlLk6GJQsqaUBKTNV-1" vertex="1" connectable="0">
          <mxGeometry x="1040" y="120" width="360" height="360" as="geometry" />
        </mxCell>
        <mxCell id="CyxNVvdQWvEYHXwhOmgi-138" value="" style="whiteSpace=wrap;html=1;aspect=fixed;fillColor=#008a00;fontColor=#ffffff;strokeColor=#005700;fillStyle=hatch;" parent="CyxNVvdQWvEYHXwhOmgi-239" vertex="1">
          <mxGeometry width="40" height="40" as="geometry" />
        </mxCell>
        <mxCell id="CyxNVvdQWvEYHXwhOmgi-139" value="" style="whiteSpace=wrap;html=1;aspect=fixed;fillColor=#008a00;fontColor=#ffffff;strokeColor=#005700;fillStyle=hatch;" parent="CyxNVvdQWvEYHXwhOmgi-239" vertex="1">
          <mxGeometry x="40" width="40" height="40" as="geometry" />
        </mxCell>
        <mxCell id="CyxNVvdQWvEYHXwhOmgi-140" value="" style="whiteSpace=wrap;html=1;aspect=fixed;fillColor=#008a00;fontColor=#ffffff;strokeColor=#005700;fillStyle=hatch;" parent="CyxNVvdQWvEYHXwhOmgi-239" vertex="1">
          <mxGeometry x="80" width="40" height="40" as="geometry" />
        </mxCell>
        <mxCell id="CyxNVvdQWvEYHXwhOmgi-141" value="" style="whiteSpace=wrap;html=1;aspect=fixed;fillColor=none;" parent="CyxNVvdQWvEYHXwhOmgi-239" vertex="1">
          <mxGeometry x="120" width="40" height="40" as="geometry" />
        </mxCell>
        <mxCell id="CyxNVvdQWvEYHXwhOmgi-142" value="" style="whiteSpace=wrap;html=1;aspect=fixed;fillColor=none;" parent="CyxNVvdQWvEYHXwhOmgi-239" vertex="1">
          <mxGeometry x="160" width="40" height="40" as="geometry" />
        </mxCell>
        <mxCell id="CyxNVvdQWvEYHXwhOmgi-143" value="" style="whiteSpace=wrap;html=1;aspect=fixed;fillColor=none;" parent="CyxNVvdQWvEYHXwhOmgi-239" vertex="1">
          <mxGeometry x="200" width="40" height="40" as="geometry" />
        </mxCell>
        <mxCell id="CyxNVvdQWvEYHXwhOmgi-144" value="" style="whiteSpace=wrap;html=1;aspect=fixed;fillColor=#008a00;fontColor=#ffffff;strokeColor=#005700;fillStyle=hatch;" parent="CyxNVvdQWvEYHXwhOmgi-239" vertex="1">
          <mxGeometry x="240" width="40" height="40" as="geometry" />
        </mxCell>
        <mxCell id="CyxNVvdQWvEYHXwhOmgi-145" value="" style="whiteSpace=wrap;html=1;aspect=fixed;fillColor=#008a00;fontColor=#ffffff;strokeColor=#005700;fillStyle=hatch;" parent="CyxNVvdQWvEYHXwhOmgi-239" vertex="1">
          <mxGeometry x="280" width="40" height="40" as="geometry" />
        </mxCell>
        <mxCell id="CyxNVvdQWvEYHXwhOmgi-146" value="" style="whiteSpace=wrap;html=1;aspect=fixed;fillColor=#008a00;fontColor=#ffffff;strokeColor=#005700;fillStyle=hatch;" parent="CyxNVvdQWvEYHXwhOmgi-239" vertex="1">
          <mxGeometry x="320" width="40" height="40" as="geometry" />
        </mxCell>
        <mxCell id="CyxNVvdQWvEYHXwhOmgi-147" value="" style="whiteSpace=wrap;html=1;aspect=fixed;fillColor=#008a00;fontColor=#ffffff;strokeColor=#005700;fillStyle=hatch;" parent="CyxNVvdQWvEYHXwhOmgi-239" vertex="1">
          <mxGeometry y="40" width="40" height="40" as="geometry" />
        </mxCell>
        <mxCell id="CyxNVvdQWvEYHXwhOmgi-148" value="" style="whiteSpace=wrap;html=1;aspect=fixed;fillColor=#008a00;fontColor=#ffffff;strokeColor=#005700;fillStyle=hatch;" parent="CyxNVvdQWvEYHXwhOmgi-239" vertex="1">
          <mxGeometry x="40" y="40" width="40" height="40" as="geometry" />
        </mxCell>
        <mxCell id="CyxNVvdQWvEYHXwhOmgi-149" value="" style="whiteSpace=wrap;html=1;aspect=fixed;fillColor=#008a00;fontColor=#ffffff;strokeColor=#005700;fillStyle=hatch;" parent="CyxNVvdQWvEYHXwhOmgi-239" vertex="1">
          <mxGeometry x="80" y="40" width="40" height="40" as="geometry" />
        </mxCell>
        <mxCell id="CyxNVvdQWvEYHXwhOmgi-150" value="" style="whiteSpace=wrap;html=1;aspect=fixed;fillColor=none;" parent="CyxNVvdQWvEYHXwhOmgi-239" vertex="1">
          <mxGeometry x="120" y="40" width="40" height="40" as="geometry" />
        </mxCell>
        <mxCell id="CyxNVvdQWvEYHXwhOmgi-151" value="" style="whiteSpace=wrap;html=1;aspect=fixed;fillColor=none;" parent="CyxNVvdQWvEYHXwhOmgi-239" vertex="1">
          <mxGeometry x="160" y="40" width="40" height="40" as="geometry" />
        </mxCell>
        <mxCell id="CyxNVvdQWvEYHXwhOmgi-152" value="" style="whiteSpace=wrap;html=1;aspect=fixed;fillColor=none;" parent="CyxNVvdQWvEYHXwhOmgi-239" vertex="1">
          <mxGeometry x="200" y="40" width="40" height="40" as="geometry" />
        </mxCell>
        <mxCell id="CyxNVvdQWvEYHXwhOmgi-153" value="" style="whiteSpace=wrap;html=1;aspect=fixed;fillColor=#008a00;fontColor=#ffffff;strokeColor=#005700;fillStyle=hatch;" parent="CyxNVvdQWvEYHXwhOmgi-239" vertex="1">
          <mxGeometry x="240" y="40" width="40" height="40" as="geometry" />
        </mxCell>
        <mxCell id="CyxNVvdQWvEYHXwhOmgi-154" value="" style="whiteSpace=wrap;html=1;aspect=fixed;fillColor=#008a00;fontColor=#ffffff;strokeColor=#005700;fillStyle=hatch;" parent="CyxNVvdQWvEYHXwhOmgi-239" vertex="1">
          <mxGeometry x="280" y="40" width="40" height="40" as="geometry" />
        </mxCell>
        <mxCell id="CyxNVvdQWvEYHXwhOmgi-155" value="" style="whiteSpace=wrap;html=1;aspect=fixed;fillColor=#008a00;fontColor=#ffffff;strokeColor=#005700;fillStyle=hatch;" parent="CyxNVvdQWvEYHXwhOmgi-239" vertex="1">
          <mxGeometry x="320" y="40" width="40" height="40" as="geometry" />
        </mxCell>
        <mxCell id="CyxNVvdQWvEYHXwhOmgi-156" value="" style="whiteSpace=wrap;html=1;aspect=fixed;fillColor=#008a00;fontColor=#ffffff;strokeColor=#005700;fillStyle=hatch;" parent="CyxNVvdQWvEYHXwhOmgi-239" vertex="1">
          <mxGeometry y="80" width="40" height="40" as="geometry" />
        </mxCell>
        <mxCell id="CyxNVvdQWvEYHXwhOmgi-157" value="" style="whiteSpace=wrap;html=1;aspect=fixed;fillColor=#008a00;fontColor=#ffffff;strokeColor=#005700;fillStyle=hatch;" parent="CyxNVvdQWvEYHXwhOmgi-239" vertex="1">
          <mxGeometry x="40" y="80" width="40" height="40" as="geometry" />
        </mxCell>
        <mxCell id="CyxNVvdQWvEYHXwhOmgi-158" value="" style="whiteSpace=wrap;html=1;aspect=fixed;fillColor=#008a00;fontColor=#ffffff;strokeColor=#005700;fillStyle=hatch;" parent="CyxNVvdQWvEYHXwhOmgi-239" vertex="1">
          <mxGeometry x="80" y="80" width="40" height="40" as="geometry" />
        </mxCell>
        <mxCell id="CyxNVvdQWvEYHXwhOmgi-159" value="" style="whiteSpace=wrap;html=1;aspect=fixed;fillColor=none;" parent="CyxNVvdQWvEYHXwhOmgi-239" vertex="1">
          <mxGeometry x="120" y="80" width="40" height="40" as="geometry" />
        </mxCell>
        <mxCell id="CyxNVvdQWvEYHXwhOmgi-160" value="" style="whiteSpace=wrap;html=1;aspect=fixed;fillColor=none;" parent="CyxNVvdQWvEYHXwhOmgi-239" vertex="1">
          <mxGeometry x="160" y="80" width="40" height="40" as="geometry" />
        </mxCell>
        <mxCell id="CyxNVvdQWvEYHXwhOmgi-161" value="" style="whiteSpace=wrap;html=1;aspect=fixed;fillColor=none;" parent="CyxNVvdQWvEYHXwhOmgi-239" vertex="1">
          <mxGeometry x="200" y="80" width="40" height="40" as="geometry" />
        </mxCell>
        <mxCell id="CyxNVvdQWvEYHXwhOmgi-162" value="" style="whiteSpace=wrap;html=1;aspect=fixed;fillColor=#008a00;fontColor=#ffffff;strokeColor=#005700;fillStyle=hatch;" parent="CyxNVvdQWvEYHXwhOmgi-239" vertex="1">
          <mxGeometry x="240" y="80" width="40" height="40" as="geometry" />
        </mxCell>
        <mxCell id="CyxNVvdQWvEYHXwhOmgi-163" value="" style="whiteSpace=wrap;html=1;aspect=fixed;fillColor=#008a00;fontColor=#ffffff;strokeColor=#005700;fillStyle=hatch;" parent="CyxNVvdQWvEYHXwhOmgi-239" vertex="1">
          <mxGeometry x="280" y="80" width="40" height="40" as="geometry" />
        </mxCell>
        <mxCell id="CyxNVvdQWvEYHXwhOmgi-164" value="" style="whiteSpace=wrap;html=1;aspect=fixed;fillColor=#008a00;fontColor=#ffffff;strokeColor=#005700;fillStyle=hatch;" parent="CyxNVvdQWvEYHXwhOmgi-239" vertex="1">
          <mxGeometry x="320" y="80" width="40" height="40" as="geometry" />
        </mxCell>
        <mxCell id="CyxNVvdQWvEYHXwhOmgi-165" value="" style="whiteSpace=wrap;html=1;aspect=fixed;fillColor=none;" parent="CyxNVvdQWvEYHXwhOmgi-239" vertex="1">
          <mxGeometry y="120" width="40" height="40" as="geometry" />
        </mxCell>
        <mxCell id="CyxNVvdQWvEYHXwhOmgi-166" value="" style="whiteSpace=wrap;html=1;aspect=fixed;fillColor=none;" parent="CyxNVvdQWvEYHXwhOmgi-239" vertex="1">
          <mxGeometry x="40" y="120" width="40" height="40" as="geometry" />
        </mxCell>
        <mxCell id="CyxNVvdQWvEYHXwhOmgi-167" value="" style="whiteSpace=wrap;html=1;aspect=fixed;fillColor=none;" parent="CyxNVvdQWvEYHXwhOmgi-239" vertex="1">
          <mxGeometry x="80" y="120" width="40" height="40" as="geometry" />
        </mxCell>
        <mxCell id="CyxNVvdQWvEYHXwhOmgi-168" value="" style="whiteSpace=wrap;html=1;aspect=fixed;fillColor=#008a00;fontColor=#ffffff;strokeColor=#005700;fillStyle=hatch;" parent="CyxNVvdQWvEYHXwhOmgi-239" vertex="1">
          <mxGeometry x="120" y="120" width="40" height="40" as="geometry" />
        </mxCell>
        <mxCell id="CyxNVvdQWvEYHXwhOmgi-169" value="" style="whiteSpace=wrap;html=1;aspect=fixed;fillColor=#008a00;fontColor=#ffffff;strokeColor=#005700;fillStyle=hatch;" parent="CyxNVvdQWvEYHXwhOmgi-239" vertex="1">
          <mxGeometry x="160" y="120" width="40" height="40" as="geometry" />
        </mxCell>
        <mxCell id="CyxNVvdQWvEYHXwhOmgi-170" value="" style="whiteSpace=wrap;html=1;aspect=fixed;fillColor=#008a00;fontColor=#ffffff;strokeColor=#005700;fillStyle=hatch;" parent="CyxNVvdQWvEYHXwhOmgi-239" vertex="1">
          <mxGeometry x="200" y="120" width="40" height="40" as="geometry" />
        </mxCell>
        <mxCell id="CyxNVvdQWvEYHXwhOmgi-171" value="" style="whiteSpace=wrap;html=1;aspect=fixed;fillColor=none;" parent="CyxNVvdQWvEYHXwhOmgi-239" vertex="1">
          <mxGeometry x="240" y="120" width="40" height="40" as="geometry" />
        </mxCell>
        <mxCell id="CyxNVvdQWvEYHXwhOmgi-172" value="" style="whiteSpace=wrap;html=1;aspect=fixed;fillColor=none;" parent="CyxNVvdQWvEYHXwhOmgi-239" vertex="1">
          <mxGeometry x="280" y="120" width="40" height="40" as="geometry" />
        </mxCell>
        <mxCell id="CyxNVvdQWvEYHXwhOmgi-173" value="" style="whiteSpace=wrap;html=1;aspect=fixed;fillColor=none;" parent="CyxNVvdQWvEYHXwhOmgi-239" vertex="1">
          <mxGeometry x="320" y="120" width="40" height="40" as="geometry" />
        </mxCell>
        <mxCell id="CyxNVvdQWvEYHXwhOmgi-174" value="" style="whiteSpace=wrap;html=1;aspect=fixed;fillColor=none;" parent="CyxNVvdQWvEYHXwhOmgi-239" vertex="1">
          <mxGeometry y="160" width="40" height="40" as="geometry" />
        </mxCell>
        <mxCell id="CyxNVvdQWvEYHXwhOmgi-175" value="" style="whiteSpace=wrap;html=1;aspect=fixed;fillColor=none;" parent="CyxNVvdQWvEYHXwhOmgi-239" vertex="1">
          <mxGeometry x="40" y="160" width="40" height="40" as="geometry" />
        </mxCell>
        <mxCell id="CyxNVvdQWvEYHXwhOmgi-176" value="" style="whiteSpace=wrap;html=1;aspect=fixed;fillColor=none;" parent="CyxNVvdQWvEYHXwhOmgi-239" vertex="1">
          <mxGeometry x="80" y="160" width="40" height="40" as="geometry" />
        </mxCell>
        <mxCell id="CyxNVvdQWvEYHXwhOmgi-177" value="" style="whiteSpace=wrap;html=1;aspect=fixed;fillColor=#008a00;fontColor=#ffffff;strokeColor=#005700;fillStyle=hatch;" parent="CyxNVvdQWvEYHXwhOmgi-239" vertex="1">
          <mxGeometry x="120" y="160" width="40" height="40" as="geometry" />
        </mxCell>
        <mxCell id="CyxNVvdQWvEYHXwhOmgi-178" value="" style="whiteSpace=wrap;html=1;aspect=fixed;fillColor=#008a00;fontColor=#ffffff;strokeColor=#005700;fillStyle=hatch;" parent="CyxNVvdQWvEYHXwhOmgi-239" vertex="1">
          <mxGeometry x="160" y="160" width="40" height="40" as="geometry" />
        </mxCell>
        <mxCell id="CyxNVvdQWvEYHXwhOmgi-179" value="" style="whiteSpace=wrap;html=1;aspect=fixed;fillColor=#008a00;fontColor=#ffffff;strokeColor=#005700;fillStyle=hatch;" parent="CyxNVvdQWvEYHXwhOmgi-239" vertex="1">
          <mxGeometry x="200" y="160" width="40" height="40" as="geometry" />
        </mxCell>
        <mxCell id="CyxNVvdQWvEYHXwhOmgi-180" value="" style="whiteSpace=wrap;html=1;aspect=fixed;fillColor=none;" parent="CyxNVvdQWvEYHXwhOmgi-239" vertex="1">
          <mxGeometry x="240" y="160" width="40" height="40" as="geometry" />
        </mxCell>
        <mxCell id="CyxNVvdQWvEYHXwhOmgi-181" value="" style="whiteSpace=wrap;html=1;aspect=fixed;fillColor=none;" parent="CyxNVvdQWvEYHXwhOmgi-239" vertex="1">
          <mxGeometry x="280" y="160" width="40" height="40" as="geometry" />
        </mxCell>
        <mxCell id="CyxNVvdQWvEYHXwhOmgi-182" value="" style="whiteSpace=wrap;html=1;aspect=fixed;fillColor=none;" parent="CyxNVvdQWvEYHXwhOmgi-239" vertex="1">
          <mxGeometry x="320" y="160" width="40" height="40" as="geometry" />
        </mxCell>
        <mxCell id="CyxNVvdQWvEYHXwhOmgi-183" value="" style="whiteSpace=wrap;html=1;aspect=fixed;fillColor=none;" parent="CyxNVvdQWvEYHXwhOmgi-239" vertex="1">
          <mxGeometry y="200" width="40" height="40" as="geometry" />
        </mxCell>
        <mxCell id="CyxNVvdQWvEYHXwhOmgi-184" value="" style="whiteSpace=wrap;html=1;aspect=fixed;fillColor=none;" parent="CyxNVvdQWvEYHXwhOmgi-239" vertex="1">
          <mxGeometry x="40" y="200" width="40" height="40" as="geometry" />
        </mxCell>
        <mxCell id="CyxNVvdQWvEYHXwhOmgi-185" value="" style="whiteSpace=wrap;html=1;aspect=fixed;fillColor=none;" parent="CyxNVvdQWvEYHXwhOmgi-239" vertex="1">
          <mxGeometry x="80" y="200" width="40" height="40" as="geometry" />
        </mxCell>
        <mxCell id="CyxNVvdQWvEYHXwhOmgi-186" value="" style="whiteSpace=wrap;html=1;aspect=fixed;fillColor=#008a00;fontColor=#ffffff;strokeColor=#005700;fillStyle=hatch;" parent="CyxNVvdQWvEYHXwhOmgi-239" vertex="1">
          <mxGeometry x="120" y="200" width="40" height="40" as="geometry" />
        </mxCell>
        <mxCell id="CyxNVvdQWvEYHXwhOmgi-187" value="" style="whiteSpace=wrap;html=1;aspect=fixed;fillColor=#008a00;fontColor=#ffffff;strokeColor=#005700;fillStyle=hatch;" parent="CyxNVvdQWvEYHXwhOmgi-239" vertex="1">
          <mxGeometry x="160" y="200" width="40" height="40" as="geometry" />
        </mxCell>
        <mxCell id="CyxNVvdQWvEYHXwhOmgi-188" value="" style="whiteSpace=wrap;html=1;aspect=fixed;fillColor=#008a00;fontColor=#ffffff;strokeColor=#005700;fillStyle=hatch;" parent="CyxNVvdQWvEYHXwhOmgi-239" vertex="1">
          <mxGeometry x="200" y="200" width="40" height="40" as="geometry" />
        </mxCell>
        <mxCell id="CyxNVvdQWvEYHXwhOmgi-189" value="" style="whiteSpace=wrap;html=1;aspect=fixed;fillColor=none;" parent="CyxNVvdQWvEYHXwhOmgi-239" vertex="1">
          <mxGeometry x="240" y="200" width="40" height="40" as="geometry" />
        </mxCell>
        <mxCell id="CyxNVvdQWvEYHXwhOmgi-190" value="" style="whiteSpace=wrap;html=1;aspect=fixed;fillColor=none;" parent="CyxNVvdQWvEYHXwhOmgi-239" vertex="1">
          <mxGeometry x="280" y="200" width="40" height="40" as="geometry" />
        </mxCell>
        <mxCell id="CyxNVvdQWvEYHXwhOmgi-191" value="" style="whiteSpace=wrap;html=1;aspect=fixed;fillColor=none;" parent="CyxNVvdQWvEYHXwhOmgi-239" vertex="1">
          <mxGeometry x="320" y="200" width="40" height="40" as="geometry" />
        </mxCell>
        <mxCell id="CyxNVvdQWvEYHXwhOmgi-192" value="" style="whiteSpace=wrap;html=1;aspect=fixed;fillColor=#008a00;fontColor=#ffffff;strokeColor=#005700;fillStyle=hatch;" parent="CyxNVvdQWvEYHXwhOmgi-239" vertex="1">
          <mxGeometry y="240" width="40" height="40" as="geometry" />
        </mxCell>
        <mxCell id="CyxNVvdQWvEYHXwhOmgi-193" value="" style="whiteSpace=wrap;html=1;aspect=fixed;fillColor=#008a00;fontColor=#ffffff;strokeColor=#005700;fillStyle=hatch;" parent="CyxNVvdQWvEYHXwhOmgi-239" vertex="1">
          <mxGeometry x="40" y="240" width="40" height="40" as="geometry" />
        </mxCell>
        <mxCell id="CyxNVvdQWvEYHXwhOmgi-194" value="" style="whiteSpace=wrap;html=1;aspect=fixed;fillColor=#008a00;fontColor=#ffffff;strokeColor=#005700;fillStyle=hatch;" parent="CyxNVvdQWvEYHXwhOmgi-239" vertex="1">
          <mxGeometry x="80" y="240" width="40" height="40" as="geometry" />
        </mxCell>
        <mxCell id="CyxNVvdQWvEYHXwhOmgi-195" value="" style="whiteSpace=wrap;html=1;aspect=fixed;fillColor=none;" parent="CyxNVvdQWvEYHXwhOmgi-239" vertex="1">
          <mxGeometry x="120" y="240" width="40" height="40" as="geometry" />
        </mxCell>
        <mxCell id="CyxNVvdQWvEYHXwhOmgi-196" value="" style="whiteSpace=wrap;html=1;aspect=fixed;fillColor=none;" parent="CyxNVvdQWvEYHXwhOmgi-239" vertex="1">
          <mxGeometry x="160" y="240" width="40" height="40" as="geometry" />
        </mxCell>
        <mxCell id="CyxNVvdQWvEYHXwhOmgi-197" value="" style="whiteSpace=wrap;html=1;aspect=fixed;fillColor=none;" parent="CyxNVvdQWvEYHXwhOmgi-239" vertex="1">
          <mxGeometry x="200" y="240" width="40" height="40" as="geometry" />
        </mxCell>
        <mxCell id="CyxNVvdQWvEYHXwhOmgi-198" value="" style="whiteSpace=wrap;html=1;aspect=fixed;fillColor=#008a00;fontColor=#ffffff;strokeColor=#005700;fillStyle=hatch;" parent="CyxNVvdQWvEYHXwhOmgi-239" vertex="1">
          <mxGeometry x="240" y="240" width="40" height="40" as="geometry" />
        </mxCell>
        <mxCell id="CyxNVvdQWvEYHXwhOmgi-199" value="" style="whiteSpace=wrap;html=1;aspect=fixed;fillColor=#008a00;fontColor=#ffffff;strokeColor=#005700;fillStyle=hatch;" parent="CyxNVvdQWvEYHXwhOmgi-239" vertex="1">
          <mxGeometry x="280" y="240" width="40" height="40" as="geometry" />
        </mxCell>
        <mxCell id="CyxNVvdQWvEYHXwhOmgi-200" value="" style="whiteSpace=wrap;html=1;aspect=fixed;fillColor=#008a00;fontColor=#ffffff;strokeColor=#005700;fillStyle=hatch;" parent="CyxNVvdQWvEYHXwhOmgi-239" vertex="1">
          <mxGeometry x="320" y="240" width="40" height="40" as="geometry" />
        </mxCell>
        <mxCell id="CyxNVvdQWvEYHXwhOmgi-201" value="" style="whiteSpace=wrap;html=1;aspect=fixed;fillColor=#008a00;fontColor=#ffffff;strokeColor=#005700;fillStyle=hatch;" parent="CyxNVvdQWvEYHXwhOmgi-239" vertex="1">
          <mxGeometry y="280" width="40" height="40" as="geometry" />
        </mxCell>
        <mxCell id="CyxNVvdQWvEYHXwhOmgi-202" value="" style="whiteSpace=wrap;html=1;aspect=fixed;fillColor=#008a00;fontColor=#ffffff;strokeColor=#005700;fillStyle=hatch;" parent="CyxNVvdQWvEYHXwhOmgi-239" vertex="1">
          <mxGeometry x="40" y="280" width="40" height="40" as="geometry" />
        </mxCell>
        <mxCell id="CyxNVvdQWvEYHXwhOmgi-203" value="" style="whiteSpace=wrap;html=1;aspect=fixed;fillColor=#008a00;fontColor=#ffffff;strokeColor=#005700;fillStyle=hatch;" parent="CyxNVvdQWvEYHXwhOmgi-239" vertex="1">
          <mxGeometry x="80" y="280" width="40" height="40" as="geometry" />
        </mxCell>
        <mxCell id="CyxNVvdQWvEYHXwhOmgi-204" value="" style="whiteSpace=wrap;html=1;aspect=fixed;fillColor=none;" parent="CyxNVvdQWvEYHXwhOmgi-239" vertex="1">
          <mxGeometry x="120" y="280" width="40" height="40" as="geometry" />
        </mxCell>
        <mxCell id="CyxNVvdQWvEYHXwhOmgi-205" value="" style="whiteSpace=wrap;html=1;aspect=fixed;fillColor=none;" parent="CyxNVvdQWvEYHXwhOmgi-239" vertex="1">
          <mxGeometry x="160" y="280" width="40" height="40" as="geometry" />
        </mxCell>
        <mxCell id="CyxNVvdQWvEYHXwhOmgi-206" value="" style="whiteSpace=wrap;html=1;aspect=fixed;fillColor=none;" parent="CyxNVvdQWvEYHXwhOmgi-239" vertex="1">
          <mxGeometry x="200" y="280" width="40" height="40" as="geometry" />
        </mxCell>
        <mxCell id="CyxNVvdQWvEYHXwhOmgi-207" value="" style="whiteSpace=wrap;html=1;aspect=fixed;fillColor=#008a00;fontColor=#ffffff;strokeColor=#005700;fillStyle=hatch;" parent="CyxNVvdQWvEYHXwhOmgi-239" vertex="1">
          <mxGeometry x="240" y="280" width="40" height="40" as="geometry" />
        </mxCell>
        <mxCell id="CyxNVvdQWvEYHXwhOmgi-208" value="" style="whiteSpace=wrap;html=1;aspect=fixed;fillColor=#008a00;fontColor=#ffffff;strokeColor=#005700;fillStyle=hatch;" parent="CyxNVvdQWvEYHXwhOmgi-239" vertex="1">
          <mxGeometry x="280" y="280" width="40" height="40" as="geometry" />
        </mxCell>
        <mxCell id="CyxNVvdQWvEYHXwhOmgi-209" value="" style="whiteSpace=wrap;html=1;aspect=fixed;fillColor=#008a00;fontColor=#ffffff;strokeColor=#005700;fillStyle=hatch;" parent="CyxNVvdQWvEYHXwhOmgi-239" vertex="1">
          <mxGeometry x="320" y="280" width="40" height="40" as="geometry" />
        </mxCell>
        <mxCell id="CyxNVvdQWvEYHXwhOmgi-210" value="" style="whiteSpace=wrap;html=1;aspect=fixed;fillColor=#008a00;fontColor=#ffffff;strokeColor=#005700;fillStyle=hatch;" parent="CyxNVvdQWvEYHXwhOmgi-239" vertex="1">
          <mxGeometry y="320" width="40" height="40" as="geometry" />
        </mxCell>
        <mxCell id="CyxNVvdQWvEYHXwhOmgi-211" value="" style="whiteSpace=wrap;html=1;aspect=fixed;fillColor=#008a00;fontColor=#ffffff;strokeColor=#005700;fillStyle=hatch;" parent="CyxNVvdQWvEYHXwhOmgi-239" vertex="1">
          <mxGeometry x="40" y="320" width="40" height="40" as="geometry" />
        </mxCell>
        <mxCell id="CyxNVvdQWvEYHXwhOmgi-212" value="" style="whiteSpace=wrap;html=1;aspect=fixed;fillColor=#008a00;fontColor=#ffffff;strokeColor=#005700;fillStyle=hatch;" parent="CyxNVvdQWvEYHXwhOmgi-239" vertex="1">
          <mxGeometry x="80" y="320" width="40" height="40" as="geometry" />
        </mxCell>
        <mxCell id="CyxNVvdQWvEYHXwhOmgi-213" value="" style="whiteSpace=wrap;html=1;aspect=fixed;fillColor=none;" parent="CyxNVvdQWvEYHXwhOmgi-239" vertex="1">
          <mxGeometry x="120" y="320" width="40" height="40" as="geometry" />
        </mxCell>
        <mxCell id="CyxNVvdQWvEYHXwhOmgi-214" value="" style="whiteSpace=wrap;html=1;aspect=fixed;fillColor=none;" parent="CyxNVvdQWvEYHXwhOmgi-239" vertex="1">
          <mxGeometry x="160" y="320" width="40" height="40" as="geometry" />
        </mxCell>
        <mxCell id="CyxNVvdQWvEYHXwhOmgi-215" value="" style="whiteSpace=wrap;html=1;aspect=fixed;fillColor=none;" parent="CyxNVvdQWvEYHXwhOmgi-239" vertex="1">
          <mxGeometry x="200" y="320" width="40" height="40" as="geometry" />
        </mxCell>
        <mxCell id="CyxNVvdQWvEYHXwhOmgi-216" value="" style="whiteSpace=wrap;html=1;aspect=fixed;fillColor=#008a00;fontColor=#ffffff;strokeColor=#005700;fillStyle=hatch;" parent="CyxNVvdQWvEYHXwhOmgi-239" vertex="1">
          <mxGeometry x="240" y="320" width="40" height="40" as="geometry" />
        </mxCell>
        <mxCell id="CyxNVvdQWvEYHXwhOmgi-217" value="" style="whiteSpace=wrap;html=1;aspect=fixed;fillColor=#008a00;fontColor=#ffffff;strokeColor=#005700;fillStyle=hatch;" parent="CyxNVvdQWvEYHXwhOmgi-239" vertex="1">
          <mxGeometry x="280" y="320" width="40" height="40" as="geometry" />
        </mxCell>
        <mxCell id="CyxNVvdQWvEYHXwhOmgi-218" value="" style="whiteSpace=wrap;html=1;aspect=fixed;fillColor=#008a00;fontColor=#ffffff;strokeColor=#005700;fillStyle=hatch;" parent="CyxNVvdQWvEYHXwhOmgi-239" vertex="1">
          <mxGeometry x="320" y="320" width="40" height="40" as="geometry" />
        </mxCell>
        <mxCell id="CyxNVvdQWvEYHXwhOmgi-262" value="&lt;font style=&quot;font-size: 16px;&quot;&gt;&lt;b&gt;?&lt;/b&gt;&lt;/font&gt;" style="text;html=1;strokeColor=none;fillColor=none;align=center;verticalAlign=middle;whiteSpace=wrap;rounded=0;" parent="CyxNVvdQWvEYHXwhOmgi-239" vertex="1">
          <mxGeometry x="85" y="45" width="30" height="30" as="geometry" />
        </mxCell>
        <mxCell id="CyxNVvdQWvEYHXwhOmgi-240" value="" style="group;fillColor=none;fontColor=#ffffff;strokeColor=#6F0000;" parent="WIyWlLk6GJQsqaUBKTNV-1" vertex="1" connectable="0">
          <mxGeometry x="1040" y="60" width="360" height="40" as="geometry" />
        </mxCell>
        <mxCell id="CyxNVvdQWvEYHXwhOmgi-221" value="" style="whiteSpace=wrap;html=1;aspect=fixed;fillColor=none;fontColor=#ffffff;strokeColor=#6F0000;fillStyle=hatch;" parent="CyxNVvdQWvEYHXwhOmgi-240" vertex="1">
          <mxGeometry width="40" height="40" as="geometry" />
        </mxCell>
        <mxCell id="CyxNVvdQWvEYHXwhOmgi-222" value="" style="whiteSpace=wrap;html=1;aspect=fixed;fillColor=none;fontColor=#ffffff;strokeColor=#6F0000;fillStyle=hatch;" parent="CyxNVvdQWvEYHXwhOmgi-240" vertex="1">
          <mxGeometry x="40" width="40" height="40" as="geometry" />
        </mxCell>
        <mxCell id="CyxNVvdQWvEYHXwhOmgi-223" value="" style="whiteSpace=wrap;html=1;aspect=fixed;fillColor=none;fontColor=#ffffff;strokeColor=#6F0000;fillStyle=hatch;" parent="CyxNVvdQWvEYHXwhOmgi-240" vertex="1">
          <mxGeometry x="80" width="40" height="40" as="geometry" />
        </mxCell>
        <mxCell id="CyxNVvdQWvEYHXwhOmgi-224" value="" style="whiteSpace=wrap;html=1;aspect=fixed;fillColor=none;fontColor=#ffffff;strokeColor=#6F0000;" parent="CyxNVvdQWvEYHXwhOmgi-240" vertex="1">
          <mxGeometry x="120" width="40" height="40" as="geometry" />
        </mxCell>
        <mxCell id="CyxNVvdQWvEYHXwhOmgi-225" value="" style="whiteSpace=wrap;html=1;aspect=fixed;fillColor=none;fontColor=#ffffff;strokeColor=#6F0000;" parent="CyxNVvdQWvEYHXwhOmgi-240" vertex="1">
          <mxGeometry x="160" width="40" height="40" as="geometry" />
        </mxCell>
        <mxCell id="CyxNVvdQWvEYHXwhOmgi-226" value="" style="whiteSpace=wrap;html=1;aspect=fixed;fillColor=none;fontColor=#ffffff;strokeColor=#6F0000;" parent="CyxNVvdQWvEYHXwhOmgi-240" vertex="1">
          <mxGeometry x="200" width="40" height="40" as="geometry" />
        </mxCell>
        <mxCell id="CyxNVvdQWvEYHXwhOmgi-227" value="" style="whiteSpace=wrap;html=1;aspect=fixed;fillColor=none;fontColor=#ffffff;strokeColor=#6F0000;fillStyle=hatch;" parent="CyxNVvdQWvEYHXwhOmgi-240" vertex="1">
          <mxGeometry x="240" width="40" height="40" as="geometry" />
        </mxCell>
        <mxCell id="CyxNVvdQWvEYHXwhOmgi-228" value="" style="whiteSpace=wrap;html=1;aspect=fixed;fillColor=none;fontColor=#ffffff;strokeColor=#6F0000;fillStyle=hatch;" parent="CyxNVvdQWvEYHXwhOmgi-240" vertex="1">
          <mxGeometry x="280" width="40" height="40" as="geometry" />
        </mxCell>
        <mxCell id="CyxNVvdQWvEYHXwhOmgi-229" value="" style="whiteSpace=wrap;html=1;aspect=fixed;fillColor=none;fontColor=#ffffff;strokeColor=#6F0000;fillStyle=hatch;" parent="CyxNVvdQWvEYHXwhOmgi-240" vertex="1">
          <mxGeometry x="320" width="40" height="40" as="geometry" />
        </mxCell>
        <mxCell id="CyxNVvdQWvEYHXwhOmgi-242" value="A" style="text;html=1;strokeColor=none;fillColor=none;align=center;verticalAlign=middle;whiteSpace=wrap;rounded=0;" parent="CyxNVvdQWvEYHXwhOmgi-240" vertex="1">
          <mxGeometry x="5" y="5" width="30" height="30" as="geometry" />
        </mxCell>
        <mxCell id="CyxNVvdQWvEYHXwhOmgi-244" value="B" style="text;html=1;strokeColor=none;fillColor=none;align=center;verticalAlign=middle;whiteSpace=wrap;rounded=0;" parent="CyxNVvdQWvEYHXwhOmgi-240" vertex="1">
          <mxGeometry x="45" y="5" width="30" height="30" as="geometry" />
        </mxCell>
        <mxCell id="CyxNVvdQWvEYHXwhOmgi-245" value="C" style="text;html=1;strokeColor=none;fillColor=none;align=center;verticalAlign=middle;whiteSpace=wrap;rounded=0;" parent="CyxNVvdQWvEYHXwhOmgi-240" vertex="1">
          <mxGeometry x="85" y="5" width="30" height="30" as="geometry" />
        </mxCell>
        <mxCell id="CyxNVvdQWvEYHXwhOmgi-246" value="D" style="text;html=1;strokeColor=none;fillColor=none;align=center;verticalAlign=middle;whiteSpace=wrap;rounded=0;" parent="CyxNVvdQWvEYHXwhOmgi-240" vertex="1">
          <mxGeometry x="125" y="5" width="30" height="30" as="geometry" />
        </mxCell>
        <mxCell id="CyxNVvdQWvEYHXwhOmgi-247" value="F" style="text;html=1;strokeColor=none;fillColor=none;align=center;verticalAlign=middle;whiteSpace=wrap;rounded=0;" parent="CyxNVvdQWvEYHXwhOmgi-240" vertex="1">
          <mxGeometry x="165" y="5" width="30" height="30" as="geometry" />
        </mxCell>
        <mxCell id="CyxNVvdQWvEYHXwhOmgi-248" value="G" style="text;html=1;strokeColor=none;fillColor=none;align=center;verticalAlign=middle;whiteSpace=wrap;rounded=0;" parent="CyxNVvdQWvEYHXwhOmgi-240" vertex="1">
          <mxGeometry x="205" y="5" width="30" height="30" as="geometry" />
        </mxCell>
        <mxCell id="CyxNVvdQWvEYHXwhOmgi-249" value="H" style="text;html=1;strokeColor=none;fillColor=none;align=center;verticalAlign=middle;whiteSpace=wrap;rounded=0;" parent="CyxNVvdQWvEYHXwhOmgi-240" vertex="1">
          <mxGeometry x="245" y="5" width="30" height="30" as="geometry" />
        </mxCell>
        <mxCell id="CyxNVvdQWvEYHXwhOmgi-250" value="I" style="text;html=1;strokeColor=none;fillColor=none;align=center;verticalAlign=middle;whiteSpace=wrap;rounded=0;" parent="CyxNVvdQWvEYHXwhOmgi-240" vertex="1">
          <mxGeometry x="285" y="5" width="30" height="30" as="geometry" />
        </mxCell>
        <mxCell id="CyxNVvdQWvEYHXwhOmgi-251" value="J" style="text;html=1;strokeColor=none;fillColor=none;align=center;verticalAlign=middle;whiteSpace=wrap;rounded=0;" parent="CyxNVvdQWvEYHXwhOmgi-240" vertex="1">
          <mxGeometry x="325" y="5" width="30" height="30" as="geometry" />
        </mxCell>
        <mxCell id="CyxNVvdQWvEYHXwhOmgi-241" value="" style="group;strokeColor=#6F0000;fillColor=none;fontColor=#ffffff;" parent="WIyWlLk6GJQsqaUBKTNV-1" vertex="1" connectable="0">
          <mxGeometry x="980" y="120" width="40" height="360" as="geometry" />
        </mxCell>
        <mxCell id="CyxNVvdQWvEYHXwhOmgi-230" value="" style="whiteSpace=wrap;html=1;aspect=fixed;fillColor=none;fontColor=#ffffff;strokeColor=#6F0000;fillStyle=hatch;" parent="CyxNVvdQWvEYHXwhOmgi-241" vertex="1">
          <mxGeometry width="40" height="40" as="geometry" />
        </mxCell>
        <mxCell id="CyxNVvdQWvEYHXwhOmgi-231" value="" style="whiteSpace=wrap;html=1;aspect=fixed;fillColor=none;fontColor=#ffffff;strokeColor=#6F0000;fillStyle=hatch;" parent="CyxNVvdQWvEYHXwhOmgi-241" vertex="1">
          <mxGeometry y="40" width="40" height="40" as="geometry" />
        </mxCell>
        <mxCell id="CyxNVvdQWvEYHXwhOmgi-232" value="" style="whiteSpace=wrap;html=1;aspect=fixed;fillColor=none;fontColor=#ffffff;strokeColor=#6F0000;fillStyle=hatch;" parent="CyxNVvdQWvEYHXwhOmgi-241" vertex="1">
          <mxGeometry y="80" width="40" height="40" as="geometry" />
        </mxCell>
        <mxCell id="CyxNVvdQWvEYHXwhOmgi-233" value="" style="whiteSpace=wrap;html=1;aspect=fixed;fillColor=none;strokeColor=#6F0000;fontColor=#ffffff;" parent="CyxNVvdQWvEYHXwhOmgi-241" vertex="1">
          <mxGeometry y="120" width="40" height="40" as="geometry" />
        </mxCell>
        <mxCell id="CyxNVvdQWvEYHXwhOmgi-234" value="" style="whiteSpace=wrap;html=1;aspect=fixed;fillColor=none;strokeColor=#6F0000;fontColor=#ffffff;" parent="CyxNVvdQWvEYHXwhOmgi-241" vertex="1">
          <mxGeometry y="160" width="40" height="40" as="geometry" />
        </mxCell>
        <mxCell id="CyxNVvdQWvEYHXwhOmgi-235" value="" style="whiteSpace=wrap;html=1;aspect=fixed;fillColor=none;strokeColor=#6F0000;fontColor=#ffffff;" parent="CyxNVvdQWvEYHXwhOmgi-241" vertex="1">
          <mxGeometry y="200" width="40" height="40" as="geometry" />
        </mxCell>
        <mxCell id="CyxNVvdQWvEYHXwhOmgi-236" value="" style="whiteSpace=wrap;html=1;aspect=fixed;fillColor=none;fontColor=#ffffff;strokeColor=#6F0000;fillStyle=hatch;" parent="CyxNVvdQWvEYHXwhOmgi-241" vertex="1">
          <mxGeometry y="240" width="40" height="40" as="geometry" />
        </mxCell>
        <mxCell id="CyxNVvdQWvEYHXwhOmgi-237" value="" style="whiteSpace=wrap;html=1;aspect=fixed;fillColor=none;fontColor=#ffffff;strokeColor=#6F0000;fillStyle=hatch;" parent="CyxNVvdQWvEYHXwhOmgi-241" vertex="1">
          <mxGeometry y="280" width="40" height="40" as="geometry" />
        </mxCell>
        <mxCell id="CyxNVvdQWvEYHXwhOmgi-238" value="" style="whiteSpace=wrap;html=1;aspect=fixed;fillColor=none;fontColor=#ffffff;strokeColor=#6F0000;fillStyle=hatch;" parent="CyxNVvdQWvEYHXwhOmgi-241" vertex="1">
          <mxGeometry y="320" width="40" height="40" as="geometry" />
        </mxCell>
        <mxCell id="CyxNVvdQWvEYHXwhOmgi-243" value="0" style="text;html=1;strokeColor=none;fillColor=none;align=center;verticalAlign=middle;whiteSpace=wrap;rounded=0;" parent="CyxNVvdQWvEYHXwhOmgi-241" vertex="1">
          <mxGeometry x="5" y="5" width="30" height="30" as="geometry" />
        </mxCell>
        <mxCell id="CyxNVvdQWvEYHXwhOmgi-252" value="1" style="text;html=1;strokeColor=none;fillColor=none;align=center;verticalAlign=middle;whiteSpace=wrap;rounded=0;" parent="CyxNVvdQWvEYHXwhOmgi-241" vertex="1">
          <mxGeometry x="5" y="45" width="30" height="30" as="geometry" />
        </mxCell>
        <mxCell id="CyxNVvdQWvEYHXwhOmgi-253" value="2" style="text;html=1;strokeColor=none;fillColor=none;align=center;verticalAlign=middle;whiteSpace=wrap;rounded=0;" parent="CyxNVvdQWvEYHXwhOmgi-241" vertex="1">
          <mxGeometry x="5" y="85" width="30" height="30" as="geometry" />
        </mxCell>
        <mxCell id="CyxNVvdQWvEYHXwhOmgi-254" value="3" style="text;html=1;strokeColor=none;fillColor=none;align=center;verticalAlign=middle;whiteSpace=wrap;rounded=0;" parent="CyxNVvdQWvEYHXwhOmgi-241" vertex="1">
          <mxGeometry x="5" y="125" width="30" height="30" as="geometry" />
        </mxCell>
        <mxCell id="CyxNVvdQWvEYHXwhOmgi-255" value="4" style="text;html=1;strokeColor=none;fillColor=none;align=center;verticalAlign=middle;whiteSpace=wrap;rounded=0;" parent="CyxNVvdQWvEYHXwhOmgi-241" vertex="1">
          <mxGeometry x="5" y="165" width="30" height="30" as="geometry" />
        </mxCell>
        <mxCell id="CyxNVvdQWvEYHXwhOmgi-256" value="5" style="text;html=1;strokeColor=none;fillColor=none;align=center;verticalAlign=middle;whiteSpace=wrap;rounded=0;" parent="CyxNVvdQWvEYHXwhOmgi-241" vertex="1">
          <mxGeometry x="5" y="205" width="30" height="30" as="geometry" />
        </mxCell>
        <mxCell id="CyxNVvdQWvEYHXwhOmgi-257" value="6" style="text;html=1;strokeColor=none;fillColor=none;align=center;verticalAlign=middle;whiteSpace=wrap;rounded=0;" parent="CyxNVvdQWvEYHXwhOmgi-241" vertex="1">
          <mxGeometry x="5" y="245" width="30" height="30" as="geometry" />
        </mxCell>
        <mxCell id="CyxNVvdQWvEYHXwhOmgi-258" value="7" style="text;html=1;strokeColor=none;fillColor=none;align=center;verticalAlign=middle;whiteSpace=wrap;rounded=0;" parent="CyxNVvdQWvEYHXwhOmgi-241" vertex="1">
          <mxGeometry x="5" y="285" width="30" height="30" as="geometry" />
        </mxCell>
        <mxCell id="CyxNVvdQWvEYHXwhOmgi-259" value="8" style="text;html=1;strokeColor=none;fillColor=none;align=center;verticalAlign=middle;whiteSpace=wrap;rounded=0;" parent="CyxNVvdQWvEYHXwhOmgi-241" vertex="1">
          <mxGeometry x="5" y="325" width="30" height="30" as="geometry" />
        </mxCell>
        <mxCell id="CyxNVvdQWvEYHXwhOmgi-261" value="&lt;ul&gt;&lt;li&gt;first&lt;br&gt;&lt;/li&gt;&lt;ul&gt;&lt;li&gt;row 0 from 0 - 2&lt;/li&gt;&lt;li&gt;row 1 from 0 - 2&lt;/li&gt;&lt;li&gt;row 2 from 0 - 2&lt;/li&gt;&lt;/ul&gt;&lt;/ul&gt;" style="text;strokeColor=none;fillColor=none;html=1;whiteSpace=wrap;verticalAlign=middle;overflow=hidden;" parent="WIyWlLk6GJQsqaUBKTNV-1" vertex="1">
          <mxGeometry x="1040" y="490" width="340" height="80" as="geometry" />
        </mxCell>
        <mxCell id="CyxNVvdQWvEYHXwhOmgi-266" value="" style="edgeStyle=orthogonalEdgeStyle;rounded=0;orthogonalLoop=1;jettySize=auto;html=1;fontSize=12;" parent="WIyWlLk6GJQsqaUBKTNV-1" source="CyxNVvdQWvEYHXwhOmgi-263" edge="1">
          <mxGeometry relative="1" as="geometry">
            <mxPoint x="414" y="1370" as="targetPoint" />
          </mxGeometry>
        </mxCell>
        <mxCell id="CyxNVvdQWvEYHXwhOmgi-263" value="" style="rhombus;whiteSpace=wrap;html=1;strokeWidth=2;fillWeight=-1;hachureGap=8;fillStyle=cross-hatch;fillColor=#ffe6cc;sketch=1;strokeColor=#d79b00;" parent="WIyWlLk6GJQsqaUBKTNV-1" vertex="1">
          <mxGeometry x="334" y="1200" width="160" height="80" as="geometry" />
        </mxCell>
        <mxCell id="CyxNVvdQWvEYHXwhOmgi-264" value="&lt;font style=&quot;font-size: 12px;&quot;&gt;Check num is NOT in 3 x 3 area&lt;/font&gt;" style="text;html=1;strokeColor=none;fillColor=none;align=center;verticalAlign=middle;whiteSpace=wrap;rounded=0;fontSize=16;" parent="WIyWlLk6GJQsqaUBKTNV-1" vertex="1">
          <mxGeometry x="364" y="1225" width="100" height="30" as="geometry" />
        </mxCell>
        <mxCell id="CyxNVvdQWvEYHXwhOmgi-269" value="TRUE" style="text;html=1;strokeColor=none;fillColor=#00CC00;align=center;verticalAlign=middle;whiteSpace=wrap;rounded=0;rotation=0;" parent="WIyWlLk6GJQsqaUBKTNV-1" vertex="1">
          <mxGeometry x="384" y="1310" width="60" height="30" as="geometry" />
        </mxCell>
        <mxCell id="CyxNVvdQWvEYHXwhOmgi-270" value="" style="curved=1;endArrow=classic;html=1;rounded=0;fontSize=12;exitX=1;exitY=0.5;exitDx=0;exitDy=0;entryX=1;entryY=0.5;entryDx=0;entryDy=0;" parent="WIyWlLk6GJQsqaUBKTNV-1" source="CyxNVvdQWvEYHXwhOmgi-87" target="CyxNVvdQWvEYHXwhOmgi-82" edge="1">
          <mxGeometry width="50" height="50" relative="1" as="geometry">
            <mxPoint x="520" y="910" as="sourcePoint" />
            <mxPoint x="520" y="820" as="targetPoint" />
            <Array as="points">
              <mxPoint x="520" y="890" />
              <mxPoint x="520" y="800" />
            </Array>
          </mxGeometry>
        </mxCell>
        <mxCell id="CyxNVvdQWvEYHXwhOmgi-271" value="" style="curved=1;endArrow=classic;html=1;rounded=0;fontSize=12;exitX=1;exitY=0.5;exitDx=0;exitDy=0;entryX=1;entryY=0.5;entryDx=0;entryDy=0;" parent="WIyWlLk6GJQsqaUBKTNV-1" target="CyxNVvdQWvEYHXwhOmgi-82" edge="1">
          <mxGeometry width="50" height="50" relative="1" as="geometry">
            <mxPoint x="494" y="1070" as="sourcePoint" />
            <mxPoint x="474" y="920" as="targetPoint" />
            <Array as="points">
              <mxPoint x="540" y="1030" />
              <mxPoint x="570" y="810" />
            </Array>
          </mxGeometry>
        </mxCell>
        <mxCell id="CyxNVvdQWvEYHXwhOmgi-272" value="" style="curved=1;endArrow=classic;html=1;rounded=0;fontSize=12;exitX=1;exitY=0.5;exitDx=0;exitDy=0;entryX=1;entryY=0.5;entryDx=0;entryDy=0;" parent="WIyWlLk6GJQsqaUBKTNV-1" source="CyxNVvdQWvEYHXwhOmgi-263" target="CyxNVvdQWvEYHXwhOmgi-82" edge="1">
          <mxGeometry width="50" height="50" relative="1" as="geometry">
            <mxPoint x="530" y="1227" as="sourcePoint" />
            <mxPoint x="510" y="917" as="targetPoint" />
            <Array as="points">
              <mxPoint x="600" y="1160" />
              <mxPoint x="620" y="840" />
            </Array>
          </mxGeometry>
        </mxCell>
        <mxCell id="CyxNVvdQWvEYHXwhOmgi-273" value="FALSE" style="text;html=1;strokeColor=#B20000;fillColor=#e51400;align=center;verticalAlign=middle;whiteSpace=wrap;rounded=0;rotation=0;fontColor=#ffffff;" parent="WIyWlLk6GJQsqaUBKTNV-1" vertex="1">
          <mxGeometry x="520" y="1170" width="60" height="30" as="geometry" />
        </mxCell>
        <mxCell id="CyxNVvdQWvEYHXwhOmgi-275" value="FALSE" style="text;html=1;strokeColor=#B20000;fillColor=#e51400;align=center;verticalAlign=middle;whiteSpace=wrap;rounded=0;rotation=0;fontColor=#ffffff;" parent="WIyWlLk6GJQsqaUBKTNV-1" vertex="1">
          <mxGeometry x="494" y="1010" width="60" height="30" as="geometry" />
        </mxCell>
        <mxCell id="CyxNVvdQWvEYHXwhOmgi-276" value="FALSE" style="text;html=1;strokeColor=#B20000;fillColor=#e51400;align=center;verticalAlign=middle;whiteSpace=wrap;rounded=0;rotation=0;fontColor=#ffffff;" parent="WIyWlLk6GJQsqaUBKTNV-1" vertex="1">
          <mxGeometry x="480" y="865" width="60" height="30" as="geometry" />
        </mxCell>
        <mxCell id="CyxNVvdQWvEYHXwhOmgi-278" value="" style="curved=1;endArrow=classic;html=1;rounded=0;fontSize=12;exitX=1;exitY=0.5;exitDx=0;exitDy=0;entryX=1;entryY=0.5;entryDx=0;entryDy=0;" parent="WIyWlLk6GJQsqaUBKTNV-1" source="CyxNVvdQWvEYHXwhOmgi-73" target="CyxNVvdQWvEYHXwhOmgi-44" edge="1">
          <mxGeometry width="50" height="50" relative="1" as="geometry">
            <mxPoint x="507" y="610" as="sourcePoint" />
            <mxPoint x="487" y="460" as="targetPoint" />
            <Array as="points">
              <mxPoint x="510" y="570" />
              <mxPoint x="510" y="500" />
            </Array>
          </mxGeometry>
        </mxCell>
        <mxCell id="CyxNVvdQWvEYHXwhOmgi-279" value="FALSE" style="text;html=1;strokeColor=#B20000;fillColor=#e51400;align=center;verticalAlign=middle;whiteSpace=wrap;rounded=0;rotation=0;fontColor=#ffffff;" parent="WIyWlLk6GJQsqaUBKTNV-1" vertex="1">
          <mxGeometry x="474" y="550" width="60" height="30" as="geometry" />
        </mxCell>
        <mxCell id="CyxNVvdQWvEYHXwhOmgi-280" value="&lt;div&gt;Create puzzle / Remove numbers&lt;br&gt;&lt;/div&gt;" style="text;strokeColor=none;fillColor=none;html=1;fontSize=24;fontStyle=1;verticalAlign=middle;align=left;" parent="WIyWlLk6GJQsqaUBKTNV-1" vertex="1">
          <mxGeometry x="1550" y="20" width="410" height="40" as="geometry" />
        </mxCell>
        <mxCell id="CyxNVvdQWvEYHXwhOmgi-282" value="&lt;ul&gt;&lt;li&gt;Set difficulty&lt;/li&gt;&lt;ul&gt;&lt;li&gt;Easy&lt;/li&gt;&lt;li&gt;Medium&lt;/li&gt;&lt;li&gt;Hard&lt;br&gt;&lt;/li&gt;&lt;/ul&gt;&lt;li&gt;For each difficulty remove a set number of cell values&lt;/li&gt;&lt;ul&gt;&lt;li&gt;Easy . remove 30 etc with hard removing the most cell values&lt;br&gt;&lt;/li&gt;&lt;/ul&gt;&lt;/ul&gt;" style="text;strokeColor=none;fillColor=none;html=1;whiteSpace=wrap;verticalAlign=top;overflow=hidden;fontSize=12;" parent="WIyWlLk6GJQsqaUBKTNV-1" vertex="1">
          <mxGeometry x="1550" y="55" width="360" height="135" as="geometry" />
        </mxCell>
        <mxCell id="CyxNVvdQWvEYHXwhOmgi-286" value="" style="edgeStyle=orthogonalEdgeStyle;rounded=0;orthogonalLoop=1;jettySize=auto;html=1;fontSize=12;" parent="WIyWlLk6GJQsqaUBKTNV-1" source="CyxNVvdQWvEYHXwhOmgi-283" edge="1">
          <mxGeometry relative="1" as="geometry">
            <mxPoint x="1750" y="285" as="targetPoint" />
          </mxGeometry>
        </mxCell>
        <mxCell id="CyxNVvdQWvEYHXwhOmgi-283" value="" style="rounded=1;whiteSpace=wrap;html=1;strokeWidth=2;fillWeight=4;hachureGap=8;hachureAngle=45;fillColor=#dae8fc;sketch=1;fillStyle=hatch;strokeColor=#6c8ebf;fontSize=12;" parent="WIyWlLk6GJQsqaUBKTNV-1" vertex="1">
          <mxGeometry x="1550" y="255" width="120" height="60" as="geometry" />
        </mxCell>
        <mxCell id="CyxNVvdQWvEYHXwhOmgi-284" value="Choose difficulty" style="text;html=1;strokeColor=none;fillColor=none;align=center;verticalAlign=middle;whiteSpace=wrap;rounded=0;fontSize=12;" parent="WIyWlLk6GJQsqaUBKTNV-1" vertex="1">
          <mxGeometry x="1580" y="270" width="60" height="30" as="geometry" />
        </mxCell>
        <mxCell id="CyxNVvdQWvEYHXwhOmgi-293" value="" style="edgeStyle=orthogonalEdgeStyle;rounded=0;orthogonalLoop=1;jettySize=auto;html=1;fontSize=12;" parent="WIyWlLk6GJQsqaUBKTNV-1" source="CyxNVvdQWvEYHXwhOmgi-288" target="CyxNVvdQWvEYHXwhOmgi-292" edge="1">
          <mxGeometry relative="1" as="geometry" />
        </mxCell>
        <mxCell id="CyxNVvdQWvEYHXwhOmgi-310" value="" style="edgeStyle=orthogonalEdgeStyle;rounded=0;orthogonalLoop=1;jettySize=auto;html=1;fontSize=12;startArrow=none;" parent="WIyWlLk6GJQsqaUBKTNV-1" source="CyxNVvdQWvEYHXwhOmgi-317" edge="1">
          <mxGeometry relative="1" as="geometry">
            <mxPoint x="1830" y="415" as="targetPoint" />
          </mxGeometry>
        </mxCell>
        <mxCell id="CyxNVvdQWvEYHXwhOmgi-288" value="" style="rhombus;whiteSpace=wrap;html=1;strokeWidth=2;fillWeight=-1;hachureGap=8;fillStyle=cross-hatch;fillColor=#ffe6cc;sketch=1;strokeColor=#d79b00;" parent="WIyWlLk6GJQsqaUBKTNV-1" vertex="1">
          <mxGeometry x="1750" y="245" width="160" height="80" as="geometry" />
        </mxCell>
        <mxCell id="CyxNVvdQWvEYHXwhOmgi-289" value="Easy" style="text;html=1;strokeColor=none;fillColor=none;align=center;verticalAlign=middle;whiteSpace=wrap;rounded=0;fontSize=12;" parent="WIyWlLk6GJQsqaUBKTNV-1" vertex="1">
          <mxGeometry x="1800" y="270" width="60" height="30" as="geometry" />
        </mxCell>
        <mxCell id="CyxNVvdQWvEYHXwhOmgi-296" value="" style="edgeStyle=orthogonalEdgeStyle;rounded=0;orthogonalLoop=1;jettySize=auto;html=1;fontSize=12;" parent="WIyWlLk6GJQsqaUBKTNV-1" source="CyxNVvdQWvEYHXwhOmgi-292" target="CyxNVvdQWvEYHXwhOmgi-295" edge="1">
          <mxGeometry relative="1" as="geometry" />
        </mxCell>
        <mxCell id="CyxNVvdQWvEYHXwhOmgi-306" value="" style="edgeStyle=orthogonalEdgeStyle;rounded=0;orthogonalLoop=1;jettySize=auto;html=1;fontSize=12;" parent="WIyWlLk6GJQsqaUBKTNV-1" source="CyxNVvdQWvEYHXwhOmgi-292" edge="1">
          <mxGeometry relative="1" as="geometry">
            <mxPoint x="2070" y="415" as="targetPoint" />
          </mxGeometry>
        </mxCell>
        <mxCell id="CyxNVvdQWvEYHXwhOmgi-292" value="" style="rhombus;whiteSpace=wrap;html=1;strokeWidth=2;fillWeight=-1;hachureGap=8;fillStyle=cross-hatch;fillColor=#ffe6cc;sketch=1;strokeColor=#d79b00;" parent="WIyWlLk6GJQsqaUBKTNV-1" vertex="1">
          <mxGeometry x="1990" y="245" width="160" height="80" as="geometry" />
        </mxCell>
        <mxCell id="CyxNVvdQWvEYHXwhOmgi-294" value="Medium" style="text;html=1;strokeColor=none;fillColor=none;align=center;verticalAlign=middle;whiteSpace=wrap;rounded=0;fontSize=12;" parent="WIyWlLk6GJQsqaUBKTNV-1" vertex="1">
          <mxGeometry x="2040" y="270" width="60" height="30" as="geometry" />
        </mxCell>
        <mxCell id="CyxNVvdQWvEYHXwhOmgi-316" value="" style="edgeStyle=orthogonalEdgeStyle;rounded=0;orthogonalLoop=1;jettySize=auto;html=1;fontSize=12;" parent="WIyWlLk6GJQsqaUBKTNV-1" source="CyxNVvdQWvEYHXwhOmgi-295" edge="1">
          <mxGeometry relative="1" as="geometry">
            <mxPoint x="2310" y="415" as="targetPoint" />
          </mxGeometry>
        </mxCell>
        <mxCell id="CyxNVvdQWvEYHXwhOmgi-295" value="" style="rhombus;whiteSpace=wrap;html=1;strokeWidth=2;fillWeight=-1;hachureGap=8;fillStyle=cross-hatch;fillColor=#ffe6cc;sketch=1;strokeColor=#d79b00;" parent="WIyWlLk6GJQsqaUBKTNV-1" vertex="1">
          <mxGeometry x="2230" y="245" width="160" height="80" as="geometry" />
        </mxCell>
        <mxCell id="CyxNVvdQWvEYHXwhOmgi-297" value="Hard" style="text;html=1;strokeColor=none;fillColor=none;align=center;verticalAlign=middle;whiteSpace=wrap;rounded=0;fontSize=12;" parent="WIyWlLk6GJQsqaUBKTNV-1" vertex="1">
          <mxGeometry x="2280" y="270" width="60" height="30" as="geometry" />
        </mxCell>
        <mxCell id="CyxNVvdQWvEYHXwhOmgi-299" value="TRUE" style="text;html=1;strokeColor=none;fillColor=#00CC00;align=center;verticalAlign=middle;whiteSpace=wrap;rounded=0;rotation=0;" parent="WIyWlLk6GJQsqaUBKTNV-1" vertex="1">
          <mxGeometry x="2280" y="360" width="60" height="30" as="geometry" />
        </mxCell>
        <mxCell id="CyxNVvdQWvEYHXwhOmgi-300" value="FALSE" style="text;html=1;strokeColor=#B20000;fillColor=#e51400;align=center;verticalAlign=middle;whiteSpace=wrap;rounded=0;rotation=0;fontColor=#ffffff;" parent="WIyWlLk6GJQsqaUBKTNV-1" vertex="1">
          <mxGeometry x="1915" y="269" width="60" height="30" as="geometry" />
        </mxCell>
        <mxCell id="CyxNVvdQWvEYHXwhOmgi-304" value="FALSE" style="text;html=1;strokeColor=#B20000;fillColor=#e51400;align=center;verticalAlign=middle;whiteSpace=wrap;rounded=0;rotation=0;fontColor=#ffffff;" parent="WIyWlLk6GJQsqaUBKTNV-1" vertex="1">
          <mxGeometry x="2156" y="269" width="60" height="30" as="geometry" />
        </mxCell>
        <mxCell id="CyxNVvdQWvEYHXwhOmgi-307" value="" style="rounded=1;whiteSpace=wrap;html=1;strokeWidth=2;fillWeight=4;hachureGap=8;hachureAngle=45;fillColor=#dae8fc;sketch=1;fillStyle=hatch;strokeColor=#6c8ebf;fontSize=12;" parent="WIyWlLk6GJQsqaUBKTNV-1" vertex="1">
          <mxGeometry x="2010" y="415" width="120" height="60" as="geometry" />
        </mxCell>
        <mxCell id="CyxNVvdQWvEYHXwhOmgi-308" value="Set remove cell number to 53" style="text;html=1;strokeColor=none;fillColor=none;align=center;verticalAlign=middle;whiteSpace=wrap;rounded=0;fontSize=12;" parent="WIyWlLk6GJQsqaUBKTNV-1" vertex="1">
          <mxGeometry x="2018" y="430" width="100" height="30" as="geometry" />
        </mxCell>
        <mxCell id="CyxNVvdQWvEYHXwhOmgi-311" value="Set remove cell number to 51" style="text;html=1;strokeColor=none;fillColor=none;align=center;verticalAlign=middle;whiteSpace=wrap;rounded=0;fontSize=12;" parent="WIyWlLk6GJQsqaUBKTNV-1" vertex="1">
          <mxGeometry x="1780" y="430" width="100" height="30" as="geometry" />
        </mxCell>
        <mxCell id="CyxNVvdQWvEYHXwhOmgi-313" value="" style="rounded=1;whiteSpace=wrap;html=1;strokeWidth=2;fillWeight=4;hachureGap=8;hachureAngle=45;fillColor=#dae8fc;sketch=1;fillStyle=hatch;strokeColor=#6c8ebf;fontSize=12;" parent="WIyWlLk6GJQsqaUBKTNV-1" vertex="1">
          <mxGeometry x="2250" y="420" width="120" height="60" as="geometry" />
        </mxCell>
        <mxCell id="CyxNVvdQWvEYHXwhOmgi-314" value="Set remove cell number to 56" style="text;html=1;strokeColor=none;fillColor=none;align=center;verticalAlign=middle;whiteSpace=wrap;rounded=0;fontSize=12;" parent="WIyWlLk6GJQsqaUBKTNV-1" vertex="1">
          <mxGeometry x="2260" y="435" width="100" height="30" as="geometry" />
        </mxCell>
        <mxCell id="CyxNVvdQWvEYHXwhOmgi-318" value="" style="edgeStyle=orthogonalEdgeStyle;rounded=0;orthogonalLoop=1;jettySize=auto;html=1;fontSize=12;endArrow=none;" parent="WIyWlLk6GJQsqaUBKTNV-1" source="CyxNVvdQWvEYHXwhOmgi-288" target="CyxNVvdQWvEYHXwhOmgi-317" edge="1">
          <mxGeometry relative="1" as="geometry">
            <mxPoint x="1830" y="325" as="sourcePoint" />
            <mxPoint x="1830" y="415" as="targetPoint" />
          </mxGeometry>
        </mxCell>
        <mxCell id="CyxNVvdQWvEYHXwhOmgi-317" value="TRUE" style="text;html=1;strokeColor=none;fillColor=#00CC00;align=center;verticalAlign=middle;whiteSpace=wrap;rounded=0;rotation=0;" parent="WIyWlLk6GJQsqaUBKTNV-1" vertex="1">
          <mxGeometry x="1800" y="360" width="60" height="30" as="geometry" />
        </mxCell>
        <mxCell id="CyxNVvdQWvEYHXwhOmgi-319" value="TRUE" style="text;html=1;strokeColor=none;fillColor=#00CC00;align=center;verticalAlign=middle;whiteSpace=wrap;rounded=0;rotation=0;" parent="WIyWlLk6GJQsqaUBKTNV-1" vertex="1">
          <mxGeometry x="2038" y="360" width="60" height="30" as="geometry" />
        </mxCell>
      </root>
    </mxGraphModel>
  </diagram>
</mxfile>
